<svg width="24" height="24" viewBox="0 0 24 24" fill="none" xmlns="http://www.w3.org/2000/svg">
<path d="M1.96899 14L4.02999 22.243C4.14099 22.688 4.54099 23 4.99999 23H18C18.431 23 18.812 22.725 18.949 22.316L21.721 14H1.96899Z" fill="white"/>
<path d="M23 7.99998H19.929L15.848 1.46998C15.555 1.00198 14.938 0.85998 14.47 1.15198C14.001 1.44498 13.859 2.06198 14.152 2.52998L17.571 7.99998H6.429L9.848 2.52998C10.14 2.06198 9.998 1.44498 9.53 1.15198C9.062 0.85998 8.445 1.00098 8.152 1.46998L4.071 7.99998H1C0.448 7.99998 0 8.44798 0 8.99998V11C0 11.552 0.448 12 1 12H23C23.552 12 24 11.552 24 11V8.99998C24 8.44798 23.552 7.99998 23 7.99998Z" fill="white"/>
</svg>
