<svg width="48" height="48" viewBox="0 0 48 48" fill="none" xmlns="http://www.w3.org/2000/svg">
<rect width="48" height="48" rx="6" fill="#3279B7"/>
<path d="M24 23C23.175 23 22.5 23.675 22.5 24.5C22.5 25.325 23.175 26 24 26C24.825 26 25.5 25.325 25.5 24.5C25.5 23.675 24.825 23 24 23ZM29.5 23C28.675 23 28 23.675 28 24.5C28 25.325 28.675 26 29.5 26C30.325 26 31 25.325 31 24.5C31 23.675 30.325 23 29.5 23ZM18.5 23C17.675 23 17 23.675 17 24.5C17 25.325 17.675 26 18.5 26C19.325 26 20 25.325 20 24.5C20 23.675 19.325 23 18.5 23Z" fill="white"/>
</svg>
