<svg width="24" height="25" viewBox="0 0 24 25" fill="none" xmlns="http://www.w3.org/2000/svg">
<path d="M10 18.8701C11.775 18.8698 13.4988 18.2755 14.897 17.1821L19.293 21.5781L20.707 20.1641L16.311 15.7681C17.405 14.3698 17.9996 12.6456 18 10.8701C18 6.45912 14.411 2.87012 10 2.87012C5.589 2.87012 2 6.45912 2 10.8701C2 15.2811 5.589 18.8701 10 18.8701ZM10 4.87012C13.309 4.87012 16 7.56112 16 10.8701C16 14.1791 13.309 16.8701 10 16.8701C6.691 16.8701 4 14.1791 4 10.8701C4 7.56112 6.691 4.87012 10 4.87012Z" fill="#808080"/>
</svg>
