<svg width="375" height="56" viewBox="0 0 375 56" fill="none" xmlns="http://www.w3.org/2000/svg">
<rect width="375" height="56" fill="#F2F2F2"/>
<path d="M18.9998 29H19.9998V36C19.9998 37.103 20.8968 38 21.9998 38H33.9998C35.1028 38 35.9998 37.103 35.9998 36V29H36.9998C37.1975 29 37.3908 28.9413 37.5552 28.8314C37.7197 28.7215 37.8478 28.5654 37.9235 28.3827C37.9991 28.2 38.0189 27.9989 37.9804 27.805C37.9418 27.611 37.8466 27.4329 37.7068 27.293L28.7068 18.293C28.614 18.2001 28.5038 18.1263 28.3825 18.076C28.2612 18.0257 28.1311 17.9998 27.9998 17.9998C27.8685 17.9998 27.7384 18.0257 27.6171 18.076C27.4958 18.1263 27.3856 18.2001 27.2928 18.293L18.2928 27.293C18.153 27.4329 18.0578 27.611 18.0192 27.805C17.9806 27.9989 18.0004 28.2 18.0761 28.3827C18.1518 28.5654 18.2799 28.7215 18.4443 28.8314C18.6087 28.9413 18.802 29 18.9998 29ZM25.9998 36V31H29.9998V36H25.9998ZM27.9998 20.414L33.9998 26.414V31L34.0008 36H31.9998V31C31.9998 29.897 31.1028 29 29.9998 29H25.9998C24.8968 29 23.9998 29.897 23.9998 31V36H21.9998V26.414L27.9998 20.414Z" fill="#808080"/>
<path d="M51.7422 33.5V23.9844H48.3438V22.0469H57.4453V23.9844H54.0547V33.5H51.7422ZM60.1406 33.5H57.9453V25.2031H59.9844V26.3828C60.3333 25.8255 60.6458 25.4583 60.9219 25.2812C61.2031 25.1042 61.5208 25.0156 61.875 25.0156C62.375 25.0156 62.8568 25.1536 63.3203 25.4297L62.6406 27.3438C62.2708 27.1042 61.9271 26.9844 61.6094 26.9844C61.3021 26.9844 61.0417 27.0703 60.8281 27.2422C60.6146 27.4089 60.4453 27.7135 60.3203 28.1562C60.2005 28.599 60.1406 29.526 60.1406 30.9375V33.5ZM65.9141 27.7344L63.9219 27.375C64.1458 26.5729 64.5312 25.9792 65.0781 25.5938C65.625 25.2083 66.4375 25.0156 67.5156 25.0156C68.4948 25.0156 69.224 25.1328 69.7031 25.3672C70.1823 25.5964 70.5182 25.8906 70.7109 26.25C70.9089 26.6042 71.0078 27.2578 71.0078 28.2109L70.9844 30.7734C70.9844 31.5026 71.0182 32.0417 71.0859 32.3906C71.1589 32.7344 71.2917 33.1042 71.4844 33.5H69.3125C69.2552 33.3542 69.1849 33.138 69.1016 32.8516C69.0651 32.7214 69.0391 32.6354 69.0234 32.5938C68.6484 32.9583 68.2474 33.2318 67.8203 33.4141C67.3932 33.5964 66.9375 33.6875 66.4531 33.6875C65.599 33.6875 64.9245 33.4557 64.4297 32.9922C63.9401 32.5286 63.6953 31.9427 63.6953 31.2344C63.6953 30.7656 63.8073 30.349 64.0312 29.9844C64.2552 29.6146 64.5677 29.3333 64.9688 29.1406C65.375 28.9427 65.9583 28.7708 66.7188 28.625C67.7448 28.4323 68.4557 28.2526 68.8516 28.0859V27.8672C68.8516 27.4453 68.7474 27.1458 68.5391 26.9688C68.3307 26.7865 67.9375 26.6953 67.3594 26.6953C66.9688 26.6953 66.6641 26.7734 66.4453 26.9297C66.2266 27.0807 66.0495 27.349 65.9141 27.7344ZM68.8516 29.5156C68.5703 29.6094 68.125 29.7214 67.5156 29.8516C66.9062 29.9818 66.5078 30.1094 66.3203 30.2344C66.0339 30.4375 65.8906 30.6953 65.8906 31.0078C65.8906 31.3151 66.0052 31.5807 66.2344 31.8047C66.4635 32.0286 66.7552 32.1406 67.1094 32.1406C67.5052 32.1406 67.8828 32.0104 68.2422 31.75C68.5078 31.5521 68.6823 31.3099 68.7656 31.0234C68.8229 30.8359 68.8516 30.4792 68.8516 29.9531V29.5156ZM80.7266 33.5H78.5312V29.2656C78.5312 28.3698 78.4844 27.7917 78.3906 27.5312C78.2969 27.2656 78.1432 27.0599 77.9297 26.9141C77.7214 26.7682 77.4688 26.6953 77.1719 26.6953C76.7917 26.6953 76.4505 26.7995 76.1484 27.0078C75.8464 27.2161 75.638 27.4922 75.5234 27.8359C75.4141 28.1797 75.3594 28.8151 75.3594 29.7422V33.5H73.1641V25.2031H75.2031V26.4219C75.9271 25.4844 76.8385 25.0156 77.9375 25.0156C78.4219 25.0156 78.8646 25.1042 79.2656 25.2812C79.6667 25.4531 79.9688 25.6745 80.1719 25.9453C80.3802 26.2161 80.5234 26.5234 80.6016 26.8672C80.6849 27.2109 80.7266 27.7031 80.7266 28.3438V33.5ZM82.7578 34.0469L85.2656 34.3516C85.3073 34.6432 85.4036 34.8438 85.5547 34.9531C85.763 35.1094 86.0911 35.1875 86.5391 35.1875C87.112 35.1875 87.5417 35.1016 87.8281 34.9297C88.0208 34.8151 88.1667 34.6302 88.2656 34.375C88.3333 34.1927 88.3672 33.8568 88.3672 33.3672V32.1562C87.7109 33.0521 86.8828 33.5 85.8828 33.5C84.7682 33.5 83.8854 33.0286 83.2344 32.0859C82.724 31.3411 82.4688 30.4141 82.4688 29.3047C82.4688 27.9141 82.8021 26.8516 83.4688 26.1172C84.1406 25.3828 84.974 25.0156 85.9688 25.0156C86.9948 25.0156 87.8411 25.4661 88.5078 26.3672V25.2031H90.5625V32.6484C90.5625 33.6276 90.4818 34.3594 90.3203 34.8438C90.1589 35.3281 89.9323 35.7083 89.6406 35.9844C89.349 36.2604 88.9583 36.4766 88.4688 36.6328C87.9844 36.7891 87.3698 36.8672 86.625 36.8672C85.2188 36.8672 84.2214 36.625 83.6328 36.1406C83.0443 35.6615 82.75 35.0521 82.75 34.3125C82.75 34.2396 82.7526 34.151 82.7578 34.0469ZM84.7188 29.1797C84.7188 30.0599 84.888 30.7057 85.2266 31.1172C85.5703 31.5234 85.9922 31.7266 86.4922 31.7266C87.0286 31.7266 87.4818 31.5182 87.8516 31.1016C88.2214 30.6797 88.4062 30.0573 88.4062 29.2344C88.4062 28.375 88.2292 27.737 87.875 27.3203C87.5208 26.9036 87.0729 26.6953 86.5312 26.6953C86.0052 26.6953 85.5703 26.901 85.2266 27.3125C84.888 27.7188 84.7188 28.3411 84.7188 29.1797ZM104.43 27.6562L102.266 28.0469C102.193 27.6146 102.026 27.2891 101.766 27.0703C101.51 26.8516 101.177 26.7422 100.766 26.7422C100.219 26.7422 99.7812 26.9323 99.4531 27.3125C99.1302 27.6875 98.9688 28.3177 98.9688 29.2031C98.9688 30.1875 99.1328 30.8828 99.4609 31.2891C99.7943 31.6953 100.24 31.8984 100.797 31.8984C101.214 31.8984 101.555 31.7812 101.82 31.5469C102.086 31.3073 102.273 30.8984 102.383 30.3203L104.539 30.6875C104.315 31.6771 103.885 32.4245 103.25 32.9297C102.615 33.4349 101.763 33.6875 100.695 33.6875C99.4818 33.6875 98.513 33.3047 97.7891 32.5391C97.0703 31.7734 96.7109 30.7135 96.7109 29.3594C96.7109 27.9896 97.0729 26.9245 97.7969 26.1641C98.5208 25.3984 99.5 25.0156 100.734 25.0156C101.745 25.0156 102.547 25.2344 103.141 25.6719C103.74 26.1042 104.169 26.7656 104.43 27.6562ZM108.289 22.0469V26.2578C108.997 25.4297 109.844 25.0156 110.828 25.0156C111.333 25.0156 111.789 25.1094 112.195 25.2969C112.602 25.4844 112.906 25.724 113.109 26.0156C113.318 26.3073 113.458 26.6302 113.531 26.9844C113.609 27.3385 113.648 27.888 113.648 28.6328V33.5H111.453V29.1172C111.453 28.2474 111.411 27.6953 111.328 27.4609C111.245 27.2266 111.096 27.0417 110.883 26.9062C110.674 26.7656 110.411 26.6953 110.094 26.6953C109.729 26.6953 109.404 26.7839 109.117 26.9609C108.831 27.138 108.62 27.4062 108.484 27.7656C108.354 28.1198 108.289 28.6458 108.289 29.3438V33.5H106.094V22.0469H108.289ZM121.344 33.5V32.2578C121.042 32.7005 120.643 33.0495 120.148 33.3047C119.659 33.5599 119.141 33.6875 118.594 33.6875C118.036 33.6875 117.536 33.5651 117.094 33.3203C116.651 33.0755 116.331 32.7318 116.133 32.2891C115.935 31.8464 115.836 31.2344 115.836 30.4531V25.2031H118.031V29.0156C118.031 30.1823 118.07 30.8984 118.148 31.1641C118.232 31.4245 118.38 31.6328 118.594 31.7891C118.807 31.9401 119.078 32.0156 119.406 32.0156C119.781 32.0156 120.117 31.9141 120.414 31.7109C120.711 31.5026 120.914 31.2474 121.023 30.9453C121.133 30.638 121.188 29.8906 121.188 28.7031V25.2031H123.383V33.5H121.344ZM119.219 23.3281C119.516 23.2969 119.706 23.2682 119.789 23.2422C120.065 23.1745 120.206 23.0547 120.211 22.8828C120.216 22.763 120.143 22.6615 119.992 22.5781C119.773 22.4583 119.427 22.3984 118.953 22.3984C118.792 22.3984 118.547 22.4089 118.219 22.4297L118.133 21.6328C118.336 21.5911 118.711 21.5729 119.258 21.5781C119.898 21.5833 120.422 21.6875 120.828 21.8906C121.276 22.1094 121.505 22.4141 121.516 22.8047C121.536 23.3464 121.062 23.6771 120.094 23.7969V24.1875H119.219V23.3281Z" fill="#1B5A37"/>
</svg>
