<svg width="375" height="57" viewBox="0 0 375 57" fill="none" xmlns="http://www.w3.org/2000/svg">
<rect width="375" height="56" transform="translate(0 0.870117)" fill="#F2F2F2"/>
<path d="M36 38.8701H20C19.7348 38.8701 19.4804 38.7648 19.2929 38.5772C19.1054 38.3897 19 38.1353 19 37.8701V19.8701C19 19.6049 19.1054 19.3505 19.2929 19.163C19.4804 18.9755 19.7348 18.8701 20 18.8701H36C36.2652 18.8701 36.5196 18.9755 36.7071 19.163C36.8946 19.3505 37 19.6049 37 19.8701V37.8701C37 38.1353 36.8946 38.3897 36.7071 38.5772C36.5196 38.7648 36.2652 38.8701 36 38.8701ZM35 36.8701V20.8701H21V36.8701H35ZM24 25.8701H32V27.8701H24V25.8701ZM24 29.8701H32V31.8701H24V29.8701Z" fill="#808080"/>
<path d="M49.1641 22.917H53.3828C54.3516 22.917 55.0859 22.9925 55.5859 23.1436C56.263 23.3467 56.8411 23.7061 57.3203 24.2217C57.7995 24.7321 58.1589 25.3519 58.3984 26.0811C58.6432 26.8102 58.7656 27.7113 58.7656 28.7842C58.7656 29.7269 58.6302 30.5785 58.3594 31.3389C58.0938 32.0941 57.7005 32.7243 57.1797 33.2295C56.7786 33.6097 56.2396 33.9092 55.5625 34.1279C55.0521 34.2894 54.3672 34.3701 53.5078 34.3701H49.1641V29.3701H47.9766V27.917H49.1641V22.917ZM51.4688 24.8545V27.917H53.9219V29.3701H51.4688V32.4404H53.2031C53.9688 32.4404 54.5208 32.3779 54.8594 32.2529C55.3073 32.0967 55.6484 31.8102 55.8828 31.3936C56.2109 30.805 56.375 29.9066 56.375 28.6982C56.375 27.8389 56.3047 27.1774 56.1641 26.7139C56.0286 26.2451 55.8255 25.8675 55.5547 25.5811C55.2891 25.2946 54.9401 25.0941 54.5078 24.9795C54.1745 24.8962 53.5104 24.8545 52.5156 24.8545H51.4688ZM62.4531 30.2217C62.4531 31.0186 62.6484 31.6488 63.0391 32.1123C63.4089 32.5498 63.8906 32.7686 64.4844 32.7686C65.0781 32.7686 65.5573 32.5498 65.9219 32.1123C66.3125 31.6488 66.5078 31.0133 66.5078 30.2061C66.5078 29.4144 66.3125 28.7894 65.9219 28.3311C65.5573 27.8936 65.0781 27.6748 64.4844 27.6748C63.8906 27.6748 63.4089 27.8936 63.0391 28.3311C62.6484 28.7946 62.4531 29.4248 62.4531 30.2217ZM68.7422 26.0732H70.9375V27.6436C70.9375 28.2894 70.8802 28.7946 70.7656 29.1592C70.6562 29.5238 70.4505 29.8493 70.1484 30.1357C69.7995 30.4743 69.3229 30.7399 68.7188 30.9326C68.5885 31.8649 68.2005 32.6592 67.5547 33.3154C66.7422 34.1436 65.7214 34.5576 64.4922 34.5576C63.7057 34.5576 62.9818 34.3857 62.3203 34.042C61.6172 33.6774 61.0885 33.1696 60.7344 32.5186C60.3802 31.8623 60.2031 31.0576 60.2031 30.1045C60.2031 29.3545 60.3828 28.6488 60.7422 27.9873C61.1172 27.2946 61.6302 26.7712 62.2812 26.417C62.9323 26.0628 63.6641 25.8857 64.4766 25.8857C65.7318 25.8857 66.7604 26.292 67.5625 27.1045C68.2865 27.8441 68.6849 28.7581 68.7578 29.8467C69.4349 29.5706 69.7839 29.0446 69.8047 28.2686H68.7422V26.0732ZM79.6328 34.3701H77.4375V30.1357C77.4375 29.2399 77.3906 28.6618 77.2969 28.4014C77.2031 28.1357 77.0495 27.93 76.8359 27.7842C76.6276 27.6383 76.375 27.5654 76.0781 27.5654C75.6979 27.5654 75.3568 27.6696 75.0547 27.8779C74.7526 28.0863 74.5443 28.3623 74.4297 28.7061C74.3203 29.0498 74.2656 29.6852 74.2656 30.6123V34.3701H72.0703V26.0732H74.1094V27.292C74.8333 26.3545 75.7448 25.8857 76.8438 25.8857C77.3281 25.8857 77.7708 25.9743 78.1719 26.1514C78.5729 26.3232 78.875 26.5446 79.0781 26.8154C79.2865 27.0863 79.4297 27.3936 79.5078 27.7373C79.5911 28.0811 79.6328 28.5732 79.6328 29.2139V34.3701ZM90.125 26.0732V27.8232H88.625V31.167C88.625 31.8441 88.638 32.2399 88.6641 32.3545C88.6953 32.4639 88.7604 32.555 88.8594 32.6279C88.9635 32.7008 89.0885 32.7373 89.2344 32.7373C89.4375 32.7373 89.7318 32.667 90.1172 32.5264L90.3047 34.2295C89.7943 34.4482 89.2161 34.5576 88.5703 34.5576C88.1745 34.5576 87.8177 34.4925 87.5 34.3623C87.1823 34.2269 86.9479 34.055 86.7969 33.8467C86.651 33.6331 86.5495 33.3467 86.4922 32.9873C86.4453 32.7321 86.4219 32.2165 86.4219 31.4404V27.8232H85.4141V26.0732H86.4219V24.4248L88.625 23.1436V26.0732H90.125ZM93.8359 22.917V27.1279C94.5443 26.2998 95.3906 25.8857 96.375 25.8857C96.8802 25.8857 97.3359 25.9795 97.7422 26.167C98.1484 26.3545 98.4531 26.5941 98.6562 26.8857C98.8646 27.1774 99.0052 27.5003 99.0781 27.8545C99.1562 28.2087 99.1953 28.7581 99.1953 29.5029V34.3701H97V29.9873C97 29.1175 96.9583 28.5654 96.875 28.3311C96.7917 28.0967 96.6432 27.9118 96.4297 27.7764C96.2214 27.6357 95.9583 27.5654 95.6406 27.5654C95.276 27.5654 94.9505 27.654 94.6641 27.8311C94.3776 28.0081 94.1667 28.2764 94.0312 28.6357C93.901 28.9899 93.8359 29.516 93.8359 30.2139V34.3701H91.6406V22.917H93.8359ZM106.891 34.3701V33.1279C106.589 33.5706 106.19 33.9196 105.695 34.1748C105.206 34.43 104.688 34.5576 104.141 34.5576C103.583 34.5576 103.083 34.4352 102.641 34.1904C102.198 33.9456 101.878 33.6019 101.68 33.1592C101.482 32.7165 101.383 32.1045 101.383 31.3232V26.0732H103.578V29.8857C103.578 31.0524 103.617 31.7686 103.695 32.0342C103.779 32.2946 103.927 32.5029 104.141 32.6592C104.354 32.8102 104.625 32.8857 104.953 32.8857C105.328 32.8857 105.664 32.7842 105.961 32.5811C106.258 32.3727 106.461 32.1175 106.57 31.8154C106.68 31.5081 106.734 30.7607 106.734 29.5732V26.0732H108.93V34.3701H106.891Z" fill="#1B5A37"/>
</svg>
