<svg width="19" height="20" viewBox="0 0 19 20" fill="none" xmlns="http://www.w3.org/2000/svg">
<path d="M8 16.8701C9.77498 16.8698 11.4988 16.2755 12.897 15.1821L17.293 19.5781L18.707 18.1641L14.311 13.7681C15.405 12.3698 15.9996 10.6456 16 8.87012C16 4.45912 12.411 0.870117 8 0.870117C3.589 0.870117 0 4.45912 0 8.87012C0 13.2811 3.589 16.8701 8 16.8701ZM8 2.87012C11.309 2.87012 14 5.56112 14 8.87012C14 12.1791 11.309 14.8701 8 14.8701C4.691 14.8701 2 12.1791 2 8.87012C2 5.56112 4.691 2.87012 8 2.87012Z" fill="#3279B7"/>
</svg>
