<svg width="18" height="21" viewBox="0 0 18 21" fill="none" xmlns="http://www.w3.org/2000/svg">
<path d="M17 20.8701H1C0.734784 20.8701 0.48043 20.7648 0.292893 20.5772C0.105357 20.3897 0 20.1353 0 19.8701V1.87012C0 1.6049 0.105357 1.35055 0.292893 1.16301C0.48043 0.975474 0.734784 0.870117 1 0.870117H17C17.2652 0.870117 17.5196 0.975474 17.7071 1.16301C17.8946 1.35055 18 1.6049 18 1.87012V19.8701C18 20.1353 17.8946 20.3897 17.7071 20.5772C17.5196 20.7648 17.2652 20.8701 17 20.8701ZM16 18.8701V2.87012H2V18.8701H16ZM5 7.87012H13V9.87012H5V7.87012ZM5 11.8701H13V13.8701H5V11.8701Z" fill="#808080"/>
</svg>
